# xmcd
#
# Track frame offsets:
#	150
#	10199
#	24758
#	36812
#	48971
#	60047
#	72545
#	83482
#	94360
#	111727
#	126465
#	138470
#	153014
#	165591
#	179770
#	194784
#	207531
#	222780
#	236697
#	251427
#	264356
#	277546
#
# Disc length: 3873 seconds
#
# Revision: 0
# Processed by: cddbd v1.5.2PL0 Copyright (c) Steve Scherf et al.
# Submitted via: dBpowerAMP V4.0
#
DISCID=350f1f16
DTITLE=George Jones - Anniversary - Ten Years Of Hits
DYEAR=1987
DGENRE=Country
TTITLE0=We Can Make It
TTITLE1=Loving You Could Never Be Better
TTITLE2=A Picture Of Me Without You
TTITLE3=What My Woman Can't Do
TTITLE4=Nothing Ever Hurt Me Half As Bad As Losing You
TTITLE5=Once Youv'e Had The Best
TTITLE6=Her Name Is
TTITLE7=Old King Kong
TTITLE8=Bartenders Blues with James Taylor
TTITLE9=Il'l Just Take It Out In Love
TTITLE10=Someday My Day Will Come
TTITLE11=The Grand Tour
TTITLE12=The Door
TTITLE13=These Days I Barely Get By
TTITLE14=Memories Of Us
TTITLE15=The Battle
TTITLE16=He Stopped Loving Her Today
TTITLE17=I'm Not Ready Yet
TTITLE18=If Drinkin' Don't Kill Me Her Memory Will
TTITLE19=Good Ones and Bad Ones
TTITLE20=Still Doin' Time
TTITLE21=Same Ole Me With The Oak Ridge Boys
EXTD=
EXTT0=
EXTT1=
EXTT2=
EXTT3=
EXTT4=
EXTT5=
EXTT6=
EXTT7=
EXTT8=
EXTT9=
EXTT10=
EXTT11=
EXTT12=
EXTT13=
EXTT14=
EXTT15=
EXTT16=
EXTT17=
EXTT18=
EXTT19=
EXTT20=
EXTT21=
PLAYORDER=
